<svg width="1551" height="805" xmlns="http://www.w3.org/2000/svg"><g><path d="M-51,-47L-113,240L-71,112Z" fill="#fffff2" stroke="#fffff2"/><path d="M-51,-47L-71,112L26,56Z" fill="#fffdf6" stroke="#fffdf6"/><path d="M-51,-47L26,56L54,-47Z" fill="#fffbf5" stroke="#fffbf5"/><path d="M-51,-47L54,-47L233,-111Z" fill="#fff8ee" stroke="#fff8ee"/><path d="M54,-47L26,56L224,121Z" fill="#fff7e7" stroke="#fff7e7"/><path d="M54,-47L224,121L233,-111Z" fill="#fff4e4" stroke="#fff4e4"/><path d="M233,-111L224,121L368,122Z" fill="#feeed3" stroke="#feeed3"/><path d="M233,-111L368,122L382,-125Z" fill="#feebd1" stroke="#feebd1"/><path d="M382,-125L368,122L479,104Z" fill="#fee5c7" stroke="#fee5c7"/><path d="M382,-125L479,104L524,-48Z" fill="#fee1c6" stroke="#fee1c6"/><path d="M382,-125L524,-48L629,-86Z" fill="#fedec2" stroke="#fedec2"/><path d="M382,-125L629,-86L948,-92Z" fill="#fecbb1" stroke="#fecbb1"/><path d="M382,-125L948,-92L1104,-111Z" fill="#f9b8a6" stroke="#f9b8a6"/><path d="M382,-125L1104,-111L1767,-123Z" fill="#e6918b" stroke="#e6918b"/><path d="M524,-48L479,104L610,96Z" fill="#fedabb" stroke="#fedabb"/><path d="M524,-48L610,96L629,-86Z" fill="#fed4b9" stroke="#fed4b9"/><path d="M629,-86L610,96L778,64Z" fill="#fec9ac" stroke="#fec9ac"/><path d="M629,-86L778,64L792,-18Z" fill="#fcc1aa" stroke="#fcc1aa"/><path d="M629,-86L792,-18L948,-92Z" fill="#fabba7" stroke="#fabba7"/><path d="M792,-18L778,64L900,99Z" fill="#f9b7a1" stroke="#f9b7a1"/><path d="M792,-18L900,99L948,-92Z" fill="#f6afa2" stroke="#f6afa2"/><path d="M948,-92L900,99L1026,67Z" fill="#f1a396" stroke="#f1a396"/><path d="M948,-92L1026,67L1104,-111Z" fill="#ec9990" stroke="#ec9990"/><path d="M1104,-111L1026,67L1157,-61Z" fill="#e58f8a" stroke="#e58f8a"/><path d="M1104,-111L1157,-61L1384,-101Z" fill="#d88080" stroke="#d88080"/><path d="M1104,-111L1384,-101L1468,-110Z" fill="#c88080" stroke="#c88080"/><path d="M1104,-111L1468,-110L1767,-123Z" fill="#b58080" stroke="#b58080"/><path d="M1157,-61L1026,67L1167,67Z" fill="#e38c86" stroke="#e38c86"/><path d="M1157,-61L1167,67L1338,94Z" fill="#d7807d" stroke="#d7807d"/><path d="M1157,-61L1338,94L1384,-101Z" fill="#cc8080" stroke="#cc8080"/><path d="M1384,-101L1338,94L1477,67Z" fill="#bc807e" stroke="#bc807e"/><path d="M1384,-101L1477,67L1468,-110Z" fill="#b68080" stroke="#b68080"/><path d="M1468,-110L1477,67L1634,-96Z" fill="#a98080" stroke="#a98080"/><path d="M1468,-110L1634,-96L1767,-123Z" fill="#9a8080" stroke="#9a8080"/><path d="M1634,-96L1477,67L1599,105Z" fill="#a2807d" stroke="#a2807d"/><path d="M1634,-96L1599,105L1804,47Z" fill="#92807e" stroke="#92807e"/><path d="M1634,-96L1804,47L1767,-123Z" fill="#898080" stroke="#898080"/><path d="M-71,112L-113,240L68,231Z" fill="#fff9d6" stroke="#fff9d6"/><path d="M-71,112L68,231L26,56Z" fill="#fffae0" stroke="#fffae0"/><path d="M26,56L68,231L224,121Z" fill="#fff6d5" stroke="#fff6d5"/><path d="M224,121L68,231L200,224Z" fill="#fff1c1" stroke="#fff1c1"/><path d="M224,121L200,224L347,187Z" fill="#ffeeb8" stroke="#ffeeb8"/><path d="M224,121L347,187L368,122Z" fill="#feebbb" stroke="#feebbb"/><path d="M368,122L347,187L442,262Z" fill="#fee4a8" stroke="#fee4a8"/><path d="M368,122L442,262L479,104Z" fill="#fee3ab" stroke="#fee3ab"/><path d="M479,104L442,262L656,205Z" fill="#fed99d" stroke="#fed99d"/><path d="M479,104L656,205L610,96Z" fill="#fed4a5" stroke="#fed4a5"/><path d="M610,96L656,205L778,64Z" fill="#fec79c" stroke="#fec79c"/><path d="M778,64L656,205L744,246Z" fill="#fcc18b" stroke="#fcc18b"/><path d="M778,64L744,246L873,163Z" fill="#fab98b" stroke="#fab98b"/><path d="M778,64L873,163L900,99Z" fill="#f8b497" stroke="#f8b497"/><path d="M900,99L873,163L1032,182Z" fill="#f2a683" stroke="#f2a683"/><path d="M900,99L1032,182L1026,67Z" fill="#ef9f85" stroke="#ef9f85"/><path d="M1026,67L1032,182L1167,67Z" fill="#e7927f" stroke="#e7927f"/><path d="M1167,67L1032,182L1150,197Z" fill="#e38c6f" stroke="#e38c6f"/><path d="M1167,67L1150,197L1338,94Z" fill="#d77f6f" stroke="#d77f6f"/><path d="M1338,94L1150,197L1379,222Z" fill="#cd7f60" stroke="#cd7f60"/><path d="M1338,94L1379,222L1477,67Z" fill="#bc7f6d" stroke="#bc7f6d"/><path d="M1477,67L1379,222L1498,197Z" fill="#b47f63" stroke="#b47f63"/><path d="M1477,67L1498,197L1599,105Z" fill="#a97f6e" stroke="#a97f6e"/><path d="M1599,105L1498,197L1642,161Z" fill="#a17f65" stroke="#a17f65"/><path d="M1599,105L1642,161L1804,47Z" fill="#928074" stroke="#928074"/><path d="M1804,47L1642,161L1794,223Z" fill="#887f68" stroke="#887f68"/><path d="M1804,47L1794,223L1790,544Z" fill="#806f4e" stroke="#806f4e"/><path d="M-113,240L-86,931L-94,542Z" fill="#f7918b" stroke="#f7918b"/><path d="M-113,240L-94,542L-68,324Z" fill="#ffd1b4" stroke="#ffd1b4"/><path d="M-113,240L-68,324L68,231Z" fill="#ffedc9" stroke="#ffedc9"/><path d="M68,231L-68,324L55,379Z" fill="#ffddb6" stroke="#ffddb6"/><path d="M68,231L55,379L171,327Z" fill="#ffd9ae" stroke="#ffd9ae"/><path d="M68,231L171,327L200,224Z" fill="#ffe6b7" stroke="#ffe6b7"/><path d="M200,224L171,327L373,331Z" fill="#ffd7a2" stroke="#ffd7a2"/><path d="M200,224L373,331L347,187Z" fill="#fedfa6" stroke="#fedfa6"/><path d="M347,187L373,331L442,262Z" fill="#fed89c" stroke="#fed89c"/><path d="M442,262L373,331L480,319Z" fill="#fec88d" stroke="#fec88d"/><path d="M442,262L480,319L656,205Z" fill="#fecd91" stroke="#fecd91"/><path d="M656,205L480,319L664,326Z" fill="#febe82" stroke="#febe82"/><path d="M656,205L664,326L744,246Z" fill="#feb87d" stroke="#feb87d"/><path d="M744,246L664,326L817,349Z" fill="#fca46e" stroke="#fca46e"/><path d="M744,246L817,349L873,163Z" fill="#f9ab78" stroke="#f9ab78"/><path d="M873,163L817,349L946,351Z" fill="#f69a6b" stroke="#f69a6b"/><path d="M873,163L946,351L1032,182Z" fill="#f19b6f" stroke="#f19b6f"/><path d="M1032,182L946,351L1009,359Z" fill="#ee855a" stroke="#ee855a"/><path d="M1032,182L1009,359L1172,311Z" fill="#e77e56" stroke="#e77e56"/><path d="M1032,182L1172,311L1150,197Z" fill="#e2835d" stroke="#e2835d"/><path d="M1150,197L1172,311L1379,222Z" fill="#d57453" stroke="#d57453"/><path d="M1379,222L1172,311L1358,403Z" fill="#cb6242" stroke="#cb6242"/><path d="M1379,222L1358,403L1471,365Z" fill="#bc5d3d" stroke="#bc5d3d"/><path d="M1379,222L1471,365L1498,197Z" fill="#b57150" stroke="#b57150"/><path d="M1498,197L1471,365L1624,313Z" fill="#a86948" stroke="#a86948"/><path d="M1498,197L1624,313L1642,161Z" fill="#a07756" stroke="#a07756"/><path d="M1642,161L1624,313L1794,223Z" fill="#917655" stroke="#917655"/><path d="M1794,223L1624,313L1706,393Z" fill="#8e6343" stroke="#8e6343"/><path d="M1794,223L1706,393L1790,544Z" fill="#854c32" stroke="#854c32"/><path d="M-68,324L-94,542L45,480Z" fill="#ffb9a5" stroke="#ffb9a5"/><path d="M-68,324L45,480L55,379Z" fill="#ffc5a6" stroke="#ffc5a6"/><path d="M55,379L45,480L169,538Z" fill="#ffad93" stroke="#ffad93"/><path d="M55,379L169,538L171,327Z" fill="#ffbb97" stroke="#ffbb97"/><path d="M171,327L169,538L319,475Z" fill="#ffae89" stroke="#ffae89"/><path d="M171,327L319,475L373,331Z" fill="#febc89" stroke="#febc89"/><path d="M373,331L319,475L520,513Z" fill="#fea477" stroke="#fea477"/><path d="M373,331L520,513L480,319Z" fill="#feae78" stroke="#feae78"/><path d="M480,319L520,513L664,326Z" fill="#fea570" stroke="#fea570"/><path d="M664,326L520,513L674,474Z" fill="#fe8f61" stroke="#fe8f61"/><path d="M664,326L674,474L732,454Z" fill="#fe8b5b" stroke="#fe8b5b"/><path d="M664,326L732,454L817,349Z" fill="#fc905d" stroke="#fc905d"/><path d="M817,349L732,454L879,514Z" fill="#f97753" stroke="#f97753"/><path d="M817,349L879,514L946,351Z" fill="#f67752" stroke="#f67752"/><path d="M946,351L879,514L1018,440Z" fill="#f16547" stroke="#f16547"/><path d="M946,351L1018,440L1009,359Z" fill="#ee6c47" stroke="#ee6c47"/><path d="M1009,359L1018,440L1158,468Z" fill="#e8573b" stroke="#e8573b"/><path d="M1009,359L1158,468L1172,311Z" fill="#e35b3b" stroke="#e35b3b"/><path d="M1172,311L1158,468L1358,403Z" fill="#d64b31" stroke="#d64b31"/><path d="M1358,403L1158,468L1384,535Z" fill="#cb3525" stroke="#cb3525"/><path d="M1358,403L1384,535L1436,459Z" fill="#bd3626" stroke="#bd3626"/><path d="M1358,403L1436,459L1471,365Z" fill="#b94730" stroke="#b94730"/><path d="M1471,365L1436,459L1569,454Z" fill="#ae422e" stroke="#ae422e"/><path d="M1471,365L1569,454L1624,313Z" fill="#a54f33" stroke="#a54f33"/><path d="M1624,313L1569,454L1706,393Z" fill="#994c32" stroke="#994c32"/><path d="M1706,393L1569,454L1790,544Z" fill="#913627" stroke="#913627"/><path d="M-94,542L-86,931L-39,780Z" fill="#bf7f7e" stroke="#bf7f7e"/><path d="M-94,542L-39,780L-33,618Z" fill="#e37e7c" stroke="#e37e7c"/><path d="M-94,542L-33,618L45,480Z" fill="#fd968a" stroke="#fd968a"/><path d="M45,480L-33,618L119,620Z" fill="#f78b7d" stroke="#f78b7d"/><path d="M45,480L119,620L169,538Z" fill="#fd907b" stroke="#fd907b"/><path d="M169,538L119,620L244,612Z" fill="#f27f6b" stroke="#f27f6b"/><path d="M169,538L244,612L319,475Z" fill="#fe8b6d" stroke="#fe8b6d"/><path d="M319,475L244,612L391,588Z" fill="#f98160" stroke="#f98160"/><path d="M319,475L391,588L520,513Z" fill="#fe8660" stroke="#fe8660"/><path d="M520,513L391,588L484,649Z" fill="#f36f4f" stroke="#f36f4f"/><path d="M520,513L484,649L577,586Z" fill="#f36a4a" stroke="#f36a4a"/><path d="M520,513L577,586L674,474Z" fill="#fe754f" stroke="#fe754f"/><path d="M674,474L577,586L771,666Z" fill="#f55939" stroke="#f55939"/><path d="M674,474L771,666L732,454Z" fill="#fc613f" stroke="#fc613f"/><path d="M732,454L771,666L879,514Z" fill="#f85539" stroke="#f85539"/><path d="M879,514L771,666L917,661Z" fill="#e53727" stroke="#e53727"/><path d="M879,514L917,661L1099,630Z" fill="#e12b1d" stroke="#e12b1d"/><path d="M879,514L1099,630L1018,440Z" fill="#ee3d29" stroke="#ee3d29"/><path d="M1018,440L1099,630L1158,468Z" fill="#e53524" stroke="#e53524"/><path d="M1158,468L1099,630L1177,589Z" fill="#da1d13" stroke="#da1d13"/><path d="M1158,468L1177,589L1384,535Z" fill="#d41f14" stroke="#d41f14"/><path d="M1384,535L1177,589L1354,630Z" fill="#bf0d09" stroke="#bf0d09"/><path d="M1384,535L1354,630L1418,581Z" fill="#b40e09" stroke="#b40e09"/><path d="M1384,535L1418,581L1436,459Z" fill="#ba2116" stroke="#ba2116"/><path d="M1436,459L1418,581L1566,596Z" fill="#af1a11" stroke="#af1a11"/><path d="M1436,459L1566,596L1569,454Z" fill="#a9291c" stroke="#a9291c"/><path d="M1569,454L1566,596L1790,544Z" fill="#981f14" stroke="#981f14"/><path d="M1790,544L1566,596L1695,675Z" fill="#810705" stroke="#810705"/><path d="M1790,544L1695,675L1737,765Z" fill="#680000" stroke="#680000"/><path d="M1790,544L1737,765L1770,906Z" fill="#490000" stroke="#490000"/><path d="M-33,618L-39,780L70,727Z" fill="#ce7c76" stroke="#ce7c76"/><path d="M-33,618L70,727L119,620Z" fill="#e07971" stroke="#e07971"/><path d="M119,620L70,727L197,729Z" fill="#d37669" stroke="#d37669"/><path d="M119,620L197,729L244,612Z" fill="#e07363" stroke="#e07363"/><path d="M244,612L197,729L388,736Z" fill="#d26e58" stroke="#d26e58"/><path d="M244,612L388,736L391,588Z" fill="#e36a50" stroke="#e36a50"/><path d="M391,588L388,736L484,649Z" fill="#de6549" stroke="#de6549"/><path d="M484,649L388,736L464,791Z" fill="#c76348" stroke="#c76348"/><path d="M484,649L464,791L582,743Z" fill="#c65e43" stroke="#c65e43"/><path d="M484,649L582,743L577,586Z" fill="#de5a3e" stroke="#de5a3e"/><path d="M577,586L582,743L771,666Z" fill="#db4d32" stroke="#db4d32"/><path d="M771,666L582,743L756,822Z" fill="#c0452c" stroke="#c0452c"/><path d="M771,666L756,822L947,778Z" fill="#b73726" stroke="#b73726"/><path d="M771,666L947,778L917,661Z" fill="#c73022" stroke="#c73022"/><path d="M917,661L947,778L1095,726Z" fill="#b92015" stroke="#b92015"/><path d="M917,661L1095,726L1099,630Z" fill="#c6180f" stroke="#c6180f"/><path d="M1099,630L1095,726L1177,589Z" fill="#c50c08" stroke="#c50c08"/><path d="M1177,589L1095,726L1209,781Z" fill="#b00704" stroke="#b00704"/><path d="M1177,589L1209,781L1354,630Z" fill="#b00000" stroke="#b00000"/><path d="M1354,630L1209,781L1335,821Z" fill="#8d0000" stroke="#8d0000"/><path d="M1354,630L1335,821L1509,782Z" fill="#7e0000" stroke="#7e0000"/><path d="M1354,630L1509,782L1418,581Z" fill="#960000" stroke="#960000"/><path d="M1418,581L1509,782L1566,596Z" fill="#8f0000" stroke="#8f0000"/><path d="M1566,596L1509,782L1579,806Z" fill="#6d0000" stroke="#6d0000"/><path d="M1566,596L1579,806L1695,675Z" fill="#700000" stroke="#700000"/><path d="M1695,675L1579,806L1737,765Z" fill="#540000" stroke="#540000"/><path d="M-39,780L-86,931L113,928Z" fill="#927c77" stroke="#927c77"/><path d="M-39,780L113,928L70,727Z" fill="#aa7a71" stroke="#aa7a71"/><path d="M70,727L113,928L197,729Z" fill="#af7669" stroke="#af7669"/><path d="M197,729L113,928L237,869Z" fill="#9f7463" stroke="#9f7463"/><path d="M197,729L237,869L388,736Z" fill="#b56e58" stroke="#b56e58"/><path d="M388,736L237,869L326,904Z" fill="#a06c53" stroke="#a06c53"/><path d="M388,736L326,904L464,791Z" fill="#a9674c" stroke="#a9674c"/><path d="M464,791L326,904L461,877Z" fill="#99654a" stroke="#99654a"/><path d="M464,791L461,877L582,743Z" fill="#ac5f43" stroke="#ac5f43"/><path d="M582,743L461,877L661,947Z" fill="#9a573c" stroke="#9a573c"/><path d="M582,743L661,947L756,822Z" fill="#a04a30" stroke="#a04a30"/><path d="M756,822L661,947L809,880Z" fill="#8e412a" stroke="#8e412a"/><path d="M756,822L809,880L947,778Z" fill="#9e3625" stroke="#9e3625"/><path d="M947,778L809,880L914,866Z" fill="#962e21" stroke="#962e21"/><path d="M947,778L914,866L1098,909Z" fill="#8c2015" stroke="#8c2015"/><path d="M947,778L1098,909L1095,726Z" fill="#97160f" stroke="#97160f"/><path d="M1095,726L1098,909L1209,781Z" fill="#8e0a07" stroke="#8e0a07"/><path d="M1209,781L1098,909L1174,912Z" fill="#760704" stroke="#760704"/><path d="M1209,781L1174,912L1320,924Z" fill="#6b0000" stroke="#6b0000"/><path d="M1209,781L1320,924L1335,821Z" fill="#6d0000" stroke="#6d0000"/><path d="M1335,821L1320,924L1467,898Z" fill="#520000" stroke="#520000"/><path d="M1335,821L1467,898L1509,782Z" fill="#590000" stroke="#590000"/><path d="M1509,782L1467,898L1579,806Z" fill="#4f0000" stroke="#4f0000"/><path d="M1579,806L1467,898L1577,925Z" fill="#3b0000" stroke="#3b0000"/><path d="M1579,806L1577,925L1770,906Z" fill="#2b0000" stroke="#2b0000"/><path d="M1579,806L1770,906L1737,765Z" fill="#350000" stroke="#350000"/><path d="M-86,931L661,947L113,928Z" fill="#7f715d" stroke="#7f715d"/><path d="M113,928L661,947L326,904Z" fill="#81694e" stroke="#81694e"/><path d="M113,928L326,904L237,869Z" fill="#8b715e" stroke="#8b715e"/><path d="M326,904L661,947L461,877Z" fill="#876045" stroke="#876045"/><path d="M661,947L1577,925L1320,924Z" fill="#5c0302" stroke="#5c0302"/><path d="M661,947L1320,924L1174,912Z" fill="#6c160e" stroke="#6c160e"/><path d="M661,947L1174,912L1098,909Z" fill="#732116" stroke="#732116"/><path d="M661,947L1098,909L809,880Z" fill="#7f3325" stroke="#7f3325"/><path d="M809,880L1098,909L914,866Z" fill="#83271b" stroke="#83271b"/><path d="M1320,924L1577,925L1467,898Z" fill="#3a0000" stroke="#3a0000"/></g></svg>